<svg width="820" height="530" xmlns="http://www.w3.org/2000/svg" xmlns:xlink="http://www.w3.org/1999/xlink">
 <title>Drawing</title>
 <defs>
  <linearGradient gradientUnits="userSpaceOnUse" y2="344" x2="235" y1="32.9999" x1="6.00017" id="svg_12">
   <stop id="svg_19" stop-color="#41D1FF"/>
   <stop id="svg_18" stop-color="#BD34FE" offset="1"/>
  </linearGradient>
  <linearGradient gradientUnits="userSpaceOnUse" y2="292.98901" x2="236.076" y1="8.81818" x1="194.651" id="svg_13">
   <stop id="svg_17" stop-color="#FFEA83"/>
   <stop id="svg_16" stop-color="#FFDD35" offset="0.08333"/>
   <stop id="svg_15" stop-color="#FFA800" offset="1"/>
  </linearGradient>
  <linearGradient gradientTransform="matrix(1,0,0,1,1048.9863586425781,561.2677993774414)" href="#svg_13"  xlink:href="#svg_13" id="svg_8" x1="5046.1777" y1="1111.5657" x2="5299.5317" y2="1111.5657" gradientUnits="userSpaceOnUse"/>
  <linearGradient href="#svg_13" gradientUnits="userSpaceOnUse" y2="1111.5657" x2="5299.5317" y1="1111.5657" x1="5046.1777" id="svg_6" xlink:href="#svg_13"  gradientTransform="matrix(1,0,0,1,1114.9862976074219,349.2677993774414)"/>
  <linearGradient href="#svg_13" gradientTransform="matrix(1,0,0,1,1300.9864196777344,507.2677993774414)"  xlink:href="#svg_13" id="svg_4" x1="5046.1777" y1="1111.5657" x2="5299.5317" y2="1111.5657" gradientUnits="userSpaceOnUse"/>
  <linearGradient gradientTransform="matrix(1,0,0,1,1048.9863586425781,561.2677993774414)" href="#svg_12"  xlink:href="#svg_12" id="svg_10" gradientUnits="userSpaceOnUse" x1="3632" y1="1036.1555" x2="6700" y2="1036.1555"/>
 </defs>
 <g id="Layer_1">
  <title>Layer 1</title>
  <g stroke="null">
   <metadata stroke="null" id="svg_20">image/svg+xml</metadata>

   <g stroke="null" id="svg_2" transform="matrix(0.259581 0 0 0.259581 -1203.29 -145.254)">
    <path stroke="null" fill="url(#svg_10)" d="m7651.98636,893.2678l97,-250l-4,-16l-956,252c102,-148 67,-266 67,-266c0,0 -305,195 -536,190c-231,-5 -305,-67 -659,46c-354,113 -454,459 -557,534c-102,74 -423,321 -423,321l290,-93c0,0 -82,78 -251,305l0,1c27,38 146,195 264,161c13,-4 28,-11 45,-19c53,30 124,59 201,67c0,0 -52,-60 -96,-130l36,-23l-6,4l111,40l-12,-104l1,0l108,40l-13,-95l41,-20l113,-428l468,-320l-37,94c-95,233 -273,288 -273,288l-74,29c-56,65 -79,81 -98,301c45,-12 87,-14 126,-4c200,54 269,295 215,362c-13,16 -45,45 -86,78l-81,0l-1,66l-8,7l-83,0l-1,64l-22,16c-77,2 -176,-66 -176,-66c1,62 52,157 52,157l9,-5l-8,6c0,0 208,138 339,87c116,-46 417,-283 677,-395l786,-208l104,-268l-599,158l0,-242l703,-185l104,-269l-807,213l0,-241l910,-240zm-1427,511l187,-49l2,9l-58,151l-193,51l62,-162zm64,323l-193,51l63,-162l186,-49l3,9l-59,151zm252,-54l-193,51l63,-162l186,-49l3,9l-59,151z" id="svg_9"/>
    <path stroke="null" stroke-width="1px" fill="url(#svg_8)" id="svg_7" d="m6158.98636,1616.2678l186,-49l3,9l-59,151l-193,51l63,-162z"/>
    <path stroke="null" stroke-width="1px" fill="url(#svg_6)" d="m6224.98636,1404.2678l186,-49l3,9l-59,151.00002l-193,50.99998l63,-162z" id="svg_5"/>
    <path stroke="null" stroke-width="1px" fill="url(#svg_4)" id="svg_3" d="m6410.98636,1562.2678l186,-49.00002l3,9l-59,151.00002l-193,51l63,-162z"/>
   </g>
  </g>
 </g>
</svg>