<svg width="250" height="250" xmlns="http://www.w3.org/2000/svg" version="1.1" xml:space="preserve">

 <g>
  <title>Layer 1</title>
  <path stroke="null" id="svg_1" d="m233.75076,75.80738l7.31337,-18.8489l-0.30158,-1.20633l-72.0782,18.99969c7.69035,-11.15855 5.05151,-20.05523 5.05151,-20.05523s-22.99566,14.70214 -40.41204,14.32517s-22.99566,-5.05151 -49.6857,3.4682s-34.2296,34.60658 -41.99535,40.26125c-7.69035,5.57927 -31.89234,24.20199 -31.89234,24.20199l21.86473,-7.01179s-6.18244,5.88086 -18.9243,22.99566l0,0.0754c2.03568,2.86503 11.00776,14.70214 19.90444,12.13869c0.98014,-0.30158 2.11108,-0.82935 3.3928,-1.43252c3.99597,2.26187 9.34906,4.44834 15.15452,5.05151c0,0 -3.92057,-4.52374 -7.23798,-9.80143l2.71424,-1.7341l-0.45237,0.30158l8.36891,3.01582l-0.90475,-7.84114l0.0754,0l8.14273,3.01582l-0.98014,-7.16258l3.09122,-1.50791l8.5197,-32.26932l35.28514,-24.12659l-2.78964,7.08719c-7.16258,17.56718 -20.583,21.71393 -20.583,21.71393l-5.57927,2.18647c-4.22215,4.90071 -5.95625,6.10704 -7.38877,22.69408c3.3928,-0.90475 6.55942,-1.05554 9.49985,-0.30158c15.07912,4.07136 20.28142,22.2417 16.21006,27.29321c-0.98014,1.20633 -3.3928,3.3928 -6.48402,5.88086l-6.10704,0l-0.0754,4.97611l-0.60316,0.52777l-6.25784,0l-0.0754,4.82532l-1.6587,1.20633c-5.80546,0.15079 -13.26963,-4.97611 -13.26963,-4.97611c0.0754,4.67453 3.92057,11.83711 3.92057,11.83711l0.67856,-0.37698l-0.60316,0.45237s15.68229,10.40459 25.55911,6.55942c8.74589,-3.4682 31.43997,-21.33696 51.04282,-29.78126l59.26095,-15.68229l7.84114,-20.20602l-45.16197,11.91251l0,-18.24574l53.00311,-13.94819l7.84114,-20.28142l-60.84425,16.05926l0,-18.17034l68.61,-18.09495zm-107.58953,38.52715l14.09898,-3.69438l0.15079,0.67856l-4.37295,11.38474l-14.55135,3.84518l4.67453,-12.21409zm4.82532,24.35278l-14.55135,3.84518l4.74992,-12.21409l14.02358,-3.69438l0.22619,0.67856l-4.44834,11.38474zm18.99969,-4.07136l-14.55135,3.84518l4.74992,-12.21409l14.02358,-3.69438l0.22619,0.67856l-4.44834,11.38474z" fill="#fff"/>
 </g>
</svg>