<svg width="180" height="42" xmlns="http://www.w3.org/2000/svg"><defs><linearGradient x1="87.424%" y1="100%" x2="12.576%" y2="0%" id="a"><stop stop-color="#A445B2" offset="0%"/><stop stop-color="#D41872" offset="51.71%"/><stop stop-color="#F06" offset="100%"/></linearGradient><linearGradient x1="13.869%" y1="1.159%" x2="88.248%" y2="99.237%" id="b"><stop stop-color="#00F2FE" offset="0%"/><stop stop-color="#4FACFE" offset="100%"/></linearGradient></defs><g fill="none" fill-rule="evenodd"><path d="M22.4 4.155a4.517 4.517 0 00-6.917 3.826v27.654A4.517 4.517 0 0022.4 39.46l22.036-13.827a4.517 4.517 0 000-7.652L22.401 4.155zm1.32-2.103l22.037 13.827a7 7 0 010 11.858L23.72 41.564A7 7 0 0113 35.634V7.982a7 7 0 0110.72-5.93z" fill="url(#a)" transform="translate(0 -1)"/><path d="M7.83 11.094a3.517 3.517 0 00-5.347 3.004V29.56a3.517 3.517 0 005.347 3.004l12.693-7.731a3.517 3.517 0 000-6.008L7.83 11.094zm1.291-2.12l12.693 7.73a6 6 0 010 10.25l-12.693 7.73A6 6 0 010 29.56V14.098a6 6 0 019.121-5.124z" fill="url(#b)" transform="translate(0 -1)"/><path d="M61.6 29V17.508h-1.638v-1.482H61.6v-.598c0-1.005.16-1.855.481-2.548.32-.693.741-1.192 1.261-1.495.52-.303 1.001-.511 1.443-.624a5.4 5.4 0 011.339-.169 4.1 4.1 0 01.806.078v1.56a2.772 2.772 0 00-.624-.052c-.312 0-.611.039-.897.117a3.683 3.683 0 00-.923.416c-.33.2-.594.537-.793 1.014-.2.477-.299 1.053-.299 1.729v.572h3.328v1.482h-3.328V29H61.6zm6.63-6.526c0-2.08.62-3.744 1.859-4.992 1.24-1.248 2.778-1.872 4.615-1.872 1.733 0 3.077.576 4.03 1.729.953 1.153 1.43 2.587 1.43 4.303 0 .208-.017.503-.052.884H70.076c.035 1.612.537 2.877 1.508 3.796.97.919 2.158 1.378 3.562 1.378 1.508 0 2.834-.52 3.978-1.56l.806 1.352c-.607.555-1.348.997-2.223 1.326a7.378 7.378 0 01-2.613.494c-1.959 0-3.592-.641-4.901-1.924-1.309-1.283-1.963-2.92-1.963-4.914zm1.924-1.352h8.216c-.052-1.3-.425-2.301-1.118-3.003-.693-.702-1.56-1.053-2.6-1.053-1.127 0-2.106.355-2.938 1.066-.832.71-1.352 1.707-1.56 2.99zm12.194 4.368c0-3.033 2.652-4.55 7.956-4.55h.78v-.364c0-2.253-1.075-3.38-3.224-3.38-1.335 0-2.574.416-3.718 1.248l-.806-1.352c.52-.45 1.205-.81 2.054-1.079a8.489 8.489 0 012.574-.403c1.577 0 2.786.429 3.627 1.287.84.858 1.261 2.102 1.261 3.731V29h-1.69v-1.534l.078-1.092h-.052c-.364.832-.94 1.53-1.729 2.093-.789.563-1.686.845-2.691.845-1.196 0-2.232-.338-3.107-1.014-.875-.676-1.313-1.612-1.313-2.808zm1.794-.156c0 .659.26 1.24.78 1.742.52.503 1.24.754 2.158.754 1.196 0 2.162-.503 2.899-1.508a5.58 5.58 0 001.105-3.38v-.598h-.754c-.555 0-1.036.009-1.443.026-.407.017-.936.082-1.586.195s-1.183.264-1.599.455c-.416.19-.78.485-1.092.884-.312.399-.468.875-.468 1.43zm13.26-1.092v-6.734h-1.716v-1.482h1.742v-3.718h1.742v3.718h3.302v1.482H99.17v6.552c0 .71.104 1.313.312 1.807.208.494.477.85.806 1.066.33.217.641.368.936.455.295.087.598.13.91.13.243 0 .442-.017.598-.052v1.586a4.67 4.67 0 01-.754.052 7.17 7.17 0 01-1.066-.078c-.347-.052-.741-.178-1.183-.377a3.869 3.869 0 01-1.157-.793c-.33-.33-.607-.806-.832-1.43-.225-.624-.338-1.352-.338-2.184zm7.826 0v-8.32h1.794v7.852c0 1.23.186 2.184.559 2.86.373.676 1.131 1.014 2.275 1.014 1.439 0 2.604-.537 3.497-1.612.893-1.075 1.339-2.357 1.339-3.848v-6.266h1.768V29h-1.742v-2.054l.104-1.04h-.052c-.312.815-.923 1.586-1.833 2.314-.91.728-2.015 1.092-3.315 1.092-1.525 0-2.639-.416-3.341-1.248-.702-.832-1.053-2.106-1.053-3.822zM120.672 29V15.922h1.742v2.418l-.104 1.04h.052c.347-1.04.888-1.898 1.625-2.574.737-.676 1.59-1.014 2.561-1.014.26 0 .494.026.702.078v1.742c-.104-.035-.32-.052-.65-.052a3.27 3.27 0 00-2.366.962 5.314 5.314 0 00-1.391 2.249 8.952 8.952 0 00-.403 2.691V29h-1.768zm7.956-6.526c0-2.08.62-3.744 1.859-4.992 1.24-1.248 2.778-1.872 4.615-1.872 1.733 0 3.077.576 4.03 1.729.953 1.153 1.43 2.587 1.43 4.303 0 .208-.017.503-.052.884h-10.036c.035 1.612.537 2.877 1.508 3.796.97.919 2.158 1.378 3.562 1.378 1.508 0 2.834-.52 3.978-1.56l.806 1.352c-.607.555-1.348.997-2.223 1.326a7.378 7.378 0 01-2.613.494c-1.959 0-3.592-.641-4.901-1.924-1.309-1.283-1.963-2.92-1.963-4.914zm1.924-1.352h8.216c-.052-1.3-.425-2.301-1.118-3.003-.693-.702-1.56-1.053-2.6-1.053-1.127 0-2.106.355-2.938 1.066-.832.71-1.352 1.707-1.56 2.99zM143.5 29v-3.328h3.302V29H143.5zm7.54 0V18.548h-1.638v-2.626h1.638v-.572c0-.832.134-1.556.403-2.171.269-.615.594-1.092.975-1.43a4.542 4.542 0 011.365-.819 6.507 6.507 0 011.417-.403c.416-.06.84-.091 1.274-.091.485 0 .858.026 1.118.078v2.808c-.139-.035-.364-.052-.676-.052-1.716 0-2.574.72-2.574 2.158v.494h2.86v2.626h-2.86V29h-3.302zm8.502 0V15.74h3.172v1.56l-.052.936h.052c.347-.728.914-1.378 1.703-1.95a4.389 4.389 0 012.639-.858c2.01 0 3.293.91 3.848 2.73h.052c.399-.745 1.005-1.387 1.82-1.924a4.807 4.807 0 012.704-.806c2.895 0 4.342 1.681 4.342 5.044V29h-3.276v-7.904c0-.85-.13-1.504-.39-1.963-.26-.46-.737-.689-1.43-.689-1.075 0-1.907.455-2.496 1.365-.59.91-.884 1.989-.884 3.237V29h-3.302v-7.904c0-.85-.121-1.504-.364-1.963-.243-.46-.72-.689-1.43-.689-1.075 0-1.911.464-2.509 1.391-.598.927-.897 1.998-.897 3.211V29h-3.302z" fill="#FFF" fill-rule="nonzero"/></g></svg>