<svg xmlns="http://www.w3.org/2000/svg" width="120" height="27" viewBox="0 0 120 27" preserveAspectRatio="xMidYMid meet" role="img" class="c-header__logo" data-v-4ee1e076=""><title>Helloprint</title> <desc>Helloprint logo</desc> <g fill="#fff" fill-rule="evenodd"><path d="M109.747156,19.3270698 C109.454516,17.4354195 109.34195,14.9952826 109.702438,12.5214085 C109.702438,12.5214085 107.241592,12.1876056 106.810607,12.0485915 C106.379621,11.9095775 106.143423,11.5064789 106.143423,11.1173239 C106.143423,10.7277465 106.643705,10.4083099 107.922719,10.3943662 C109.202156,10.3804225 110.078071,10.4222535 110.078071,10.4222535 C110.078071,10.4222535 111.826522,1.13492958 115.430747,1.37112676 C117.179621,1.4856338 118.188635,3.67732394 117.515959,6.55690141 C117.210466,7.86591549 116.456663,9.21760563 115.444691,10.7556338 C115.444691,10.7556338 118.91455,10.8426761 119.288494,10.8714085 C119.662438,10.9001408 119.762578,11.3366197 119.771452,11.6353521 C119.779902,11.933662 119.92948,12.8907042 118.875677,12.9346479 C117.822297,12.9785915 114.950747,12.9701408 113.998776,12.924507 C113.998776,12.924507 112.942015,14.3704225 112.524973,14.8432394 C112.524973,14.8432394 112.19117,18.2776056 112.372015,19.5566197 C112.55286,20.8356338 112.983846,22.476338 115.569761,21.2526761 C118.155677,20.0290141 118.475536,20.154507 118.61455,20.7938028 C118.753564,21.4335211 118.69779,21.864507 117.807931,22.5177465 C116.918071,23.1714085 115.055114,24.4085915 113.69286,24.5061972 C112.330184,24.6033803 111.204128,23.7967606 110.522578,22.3094366 C110.487397,22.2325913 110.452029,22.1487725 110.416673,22.0583269 C109.510341,22.557631 105.859058,24.5345443 104.822156,24.558169 C103.635254,24.5847887 102.86624,23.7405634 102.751733,21.3992958 C102.637226,19.0576056 103.017508,17.2005634 103.068635,16.9449296 C103.095254,16.8130986 102.992578,16.8130986 102.992578,16.8130986 C102.926663,16.8130986 102.890325,16.8557746 102.851029,16.9284507 C102.811311,17.0011268 100.45779,21.7478873 100.035254,22.5312676 C99.6127192,23.3146479 99.3625784,24.515493 98.0159587,24.515493 C97.0218012,24.515493 96.6462867,23.503754 96.5497002,22.492287 C95.8219421,23.0276688 93.5006924,24.5861318 91.2372263,24.5066197 C89.40367,24.415404 88.8697783,22.8621134 89.285217,20.3202804 C88.7142089,20.5725727 87.4538996,21.0255653 86.3848319,20.6797183 C84.9524376,20.2161972 84.4855361,18.9422535 84.3080714,17.904507 C84.130184,16.866338 84.0891981,16.5929577 84.0621559,16.4564789 C84.0346911,16.32 83.980184,16.3060563 83.9252545,16.3060563 C83.8707474,16.3060563 83.8162404,16.4290141 83.6932826,16.7298592 C83.5703249,17.0302817 81.5899023,22.7940845 81.207508,23.5178873 C80.8246911,24.2421127 80.4287756,24.6790141 79.7049728,24.4740845 C78.9807474,24.2691549 78.0110291,23.7367606 78.5573671,19.775493 C79.1037052,15.8146479 79.8689164,12.8230986 80.1148319,12.3726761 C80.3603249,11.921831 80.5753953,11.7228169 81.3541277,11.7160563 C82.1332826,11.7092958 82.1928601,11.8415493 82.2355361,12.491831 C82.2786347,13.1421127 82.083846,15.7398592 82.1599023,15.7897183 C82.2355361,15.8391549 82.2541277,15.8011268 82.2752545,15.7829577 C82.3348319,15.7322535 82.3699023,15.6304225 82.450184,15.4592958 C82.5596207,15.2273239 83.1879305,13.7792958 83.7477897,13.0419718 C84.3080714,12.3042254 85.0006066,11.6150704 86.1296207,11.7401408 C87.2590573,11.8656338 87.3845502,12.7335211 86.9349728,14.7616901 C86.4853953,16.7902817 86.6434235,17.6674648 87.5315925,17.8770423 C88.2582077,18.0485802 89.2811972,17.5421653 89.9657274,17.1506447 C90.4195786,15.2778006 90.9034049,13.6028679 91.1535643,12.9494366 C91.2731418,12.5425352 91.923846,11.9057746 92.973846,11.7997183 C94.1594798,11.6801408 94.4586347,12.0874648 94.3149728,12.8776056 C94.1713108,13.668169 92.7342685,18.3029577 92.5306066,19.9795775 C92.3269446,21.6561972 92.5546911,22.578169 94.0994798,21.7402817 C95.2377535,21.1222638 96.2266793,20.2055502 96.6683313,19.7658765 C96.8272419,17.9037342 97.1008349,15.1944391 97.4214516,13.703662 C97.8706066,11.6176056 98.9751136,11.76 99.3537052,11.76 C99.7500432,11.76 100.225395,11.9450704 100.374973,12.5083099 C100.52455,13.0715493 100.471733,13.8904225 100.322156,14.8322535 C100.172578,15.7740845 99.9313108,17.4008451 99.9790573,17.508169 C100.014128,17.5876056 100.172578,17.6138028 100.243142,17.4819718 C100.313283,17.3497183 101.168494,15.2374648 102.128494,13.5439437 C103.088494,11.8504225 104.275395,11.5969014 105.022015,11.8369014 C105.769057,12.0769014 106.219057,12.9570423 105.902156,14.7705634 C105.585254,16.5840845 104.768916,20.7709859 105.529057,21.3709859 C106.275328,21.9603653 107.150842,21.2116438 109.747156,19.3270698 Z M48.4869967,20.3865765 C48.2146064,19.0980709 48.1445002,17.3993512 48.8641277,15.7014085 C49.827508,13.4273239 51.4648319,11.9928169 54.1631418,11.8470423 C56.8618742,11.7012676 58.8541277,13.2447887 59.187508,13.4902817 C59.187508,13.4902817 58.9918742,14.448169 59.0544094,15.7685915 C59.0544094,15.7685915 58.2397615,15.0608451 57.2134235,14.4266197 C57.2134235,14.4266197 57.1508883,14.4164789 57.1145502,14.4591549 C57.0782122,14.5022535 57.105677,14.5601408 57.105677,14.5601408 C57.105677,14.5601408 58.3415925,16.98 57.6460995,19.7353521 C56.9506066,22.4907042 55.149339,24.4140845 52.737508,24.5108451 C51.0325517,24.5792345 50.089588,23.8413049 49.510434,22.9827243 C48.7213017,23.3890643 46.2307363,24.6159529 45.1077897,24.5188732 C43.7641277,24.4026761 43.1544094,23.106338 42.9794798,22.758169 C41.1553953,23.8470423 38.847508,24.6342254 37.797508,24.4876056 C37.1838331,24.4018789 36.3607091,23.6603597 35.7370756,22.1249613 L35.7270854,22.1340845 C32.9277897,24.2864789 30.3266629,24.893662 28.3986347,24.3261972 C26.4710291,23.7583099 25.4746911,21.9008451 25.2427192,20.7874648 C24.9908883,19.5764789 24.8730009,18.4766197 25.7315925,15.9283099 C26.5897615,13.38 28.3986347,11.7557746 30.603846,11.7557746 C32.8090573,11.7557746 33.6934235,13.4328169 33.8784939,14.2512676 C34.0631418,15.0701408 33.9211699,16.2266197 32.578353,17.9450704 C31.2359587,19.6635211 28.4615925,20.5047887 28.4615925,20.5047887 C28.6610291,20.8656338 29.1604657,22.0656338 31.2760995,21.4622535 C32.7848232,21.0319644 34.3004231,20.0408317 35.0458221,19.507591 C34.9558101,18.9280134 34.890548,18.2935529 34.8566629,17.6019718 C34.6272263,12.9283099 36.567508,7.77802817 37.3082122,6.06760563 C38.0489164,4.35633803 39.5831418,1.81690141 40.7649728,0.952394366 C41.9468038,0.0883098592 43.3225784,-0.264507042 44.0455361,0.264507042 C44.7684939,0.793943662 45.4213108,1.60521127 44.8390573,4.86802817 C44.8390573,4.86802817 47.1672263,0 50.0776488,0 C52.9876488,0 51.9279305,5.16676056 51.1872263,7.1243662 C50.4465221,9.08197183 48.790184,12.4698592 47.5555361,14.4802817 C46.3208883,16.4911268 45.2446911,18.7487324 45.2446911,19.7011268 C45.2446911,20.6535211 45.6858178,21.588169 46.0563812,21.5176056 C46.4065578,21.4508482 46.8834259,21.4472475 48.4869967,20.3865765 Z M24.1284939,20.424507 C24.3549728,21.7922535 24.8937052,22.463662 24.8937052,22.463662 C22.4277897,24.624507 20.6480714,25.5650704 18.4618742,25.6922535 C16.2752545,25.8194366 14.5973671,24.0143662 14.673846,20.8622535 C14.7017333,19.6969014 15.1960995,17.568169 15.8518742,15.2273239 C13.707508,15.4580282 11.3780714,15.7052113 9.33004319,15.9126761 C8.87666291,17.2478873 6.85314178,23.1916901 6.51469107,23.9167606 C6.13356431,24.7335211 5.14609953,26.3112676 3.82567699,26.3112676 C2.50525446,26.3112676 2.5225784,23.7760563 3.15638122,22.2971831 C3.4669446,21.5729577 4.45229671,18.9578873 5.4397615,16.2853521 C4.60947981,16.3567606 4.00736713,16.3990141 3.73905727,16.3994366 C1.97624037,16.4011268 1.87440938,16.0119718 1.23680375,15.1073239 C1.01159248,14.7287324 -0.104745545,13.4864789 2.69497276,13.3669014 C2.69497276,13.3669014 4.30060657,13.2984507 6.56962065,13.2016901 C7.14088826,11.628169 7.60187417,10.3330986 7.76919812,9.81464789 C8.29736713,8.17732394 8.96624037,6.22309859 8.43807136,4.92042254 C7.90990234,3.61732394 6.57046572,3.51295775 4.56342347,4.56887324 C2.55638122,5.6256338 1.54905727,6.75971831 0.77455023,6.90084507 C3.91187083e-13,7.0415493 -0.241224418,6.42760563 0.269198117,5.42408451 C0.780043187,4.42056338 2.04046572,2.4 5.05778967,1.36394366 C8.41018403,0.212957746 11.4253953,1.5528169 11.865677,4.47507042 C12.165677,6.46605634 11.0865221,10.3778873 10.2562404,13.043662 C12.3891981,12.9523944 14.6497615,12.8552113 16.5714516,12.7723944 C17.5665221,9.50492958 18.6684939,6.31901408 19.1100432,5.10633803 C20.0113108,2.63197183 20.9146911,2.04295775 22.1172263,2.2871831 C23.320184,2.53140845 23.1135643,3.97859155 23.0007474,4.54267606 C22.8879305,5.10633803 22.6437052,5.52 21.8353953,7.77549296 C21.4673671,8.80309859 20.8424376,10.6495775 20.2268038,12.6130986 C20.6370854,12.5949296 20.9514516,12.5809859 21.1445502,12.5716901 C23.2470854,12.4732394 23.830184,12.3295775 24.0824376,13.0897183 C24.3346911,13.8498592 24.0211699,14.3471831 22.8241277,14.4692958 C22.5228601,14.5001408 21.2776488,14.6370423 19.5545502,14.825493 C19.0846911,16.4294366 18.688353,17.9357746 18.5125784,18.9553521 C18.0427192,21.6807042 18.4897615,22.6990141 20.1439868,22.7176056 C21.7977897,22.7366197 24.1284939,20.424507 24.1284939,20.424507 Z M28.0551136,18.3012676 C29.8344094,18.1322535 30.8852545,16.9512676 31.3952545,16.0715493 C31.9052545,15.191831 31.4299023,14.4807042 31.0876488,14.3078873 C30.7453953,14.1350704 29.8044094,14.1084507 28.9741277,15.2159155 C27.9955361,16.5211268 28.0551136,18.3012676 28.0551136,18.3012676 Z M45.1170854,14.2229577 C45.2772263,14.31 47.7672263,9.30126761 48.3790573,7.24774648 C48.9904657,5.19464789 49.4417333,3.19985915 49.0196207,3.02535211 C48.597508,2.85042254 47.5635643,4.00098592 46.5439868,7.18985915 C45.5248319,10.3787324 44.9569446,14.135493 45.1170854,14.2229577 Z M42.0604657,20.0607042 C41.1684939,16.4273239 42.939339,10.1315493 42.939339,10.1315493 C42.2045502,11.9459155 39.8104657,15.5150704 38.7680714,17.8702817 C37.7260995,20.225493 38.7879305,21.426338 38.9189164,21.5049296 C39.0503249,21.5835211 39.2928601,21.6084507 40.2110291,21.1626761 C41.1291981,20.7169014 42.0604657,20.0607042 42.0604657,20.0607042 Z M39.2835643,7.84267606 C38.4173671,11.0632394 38.0041277,14.0488732 38.1499023,14.2580282 C38.3172263,14.1891549 39.9410291,11.3112676 41.235677,7.68169014 C42.5303249,4.05211268 42.2218742,3.07056338 42.0448319,3.01183099 C41.5939868,2.86140845 40.1848319,4.49070423 39.2835643,7.84267606 Z M55.3830009,18.1030986 C55.6306066,15.995493 54.9317333,14.3049296 53.9315925,14.3049296 C52.9314516,14.3049296 51.6042685,15.5869014 51.2708883,17.9095775 C50.937508,20.231831 51.3617333,21.8315493 52.8672263,22.0250704 C54.3722967,22.2185915 55.1358178,20.2102817 55.3830009,18.1030986 Z M72.6363812,3.87929577 C65.4224376,2.46211268 63.3190573,10.9909859 63.297508,17.5259155 C63.2768038,23.7583099 64.9086347,24.7352113 65.6903249,24.7888732 C67.0530009,24.881831 67.6825784,23.5880282 68.158353,21.378169 C68.6341277,19.1683099 68.5479305,15.6202817 68.5479305,15.6202817 C66.9097615,15.0435211 66.1306066,14.5132394 65.9446911,14.1878873 C65.7591981,13.8629577 65.6569446,13.0876056 65.6970854,12.6097183 C65.745677,12.0321127 65.8255361,11.5664789 66.5032826,11.9822535 C67.1806066,12.3980282 68.4127192,12.7985915 68.4127192,12.7985915 C68.5204657,8.91760563 69.3368038,8.0243662 69.9837052,7.45478873 C70.630184,6.88478873 71.662015,6.9156338 72.2628601,7.16197183 C72.8632826,7.40873239 72.7517333,8.27746479 72.5400432,9.14873239 C72.3279305,10.02 71.8035643,11.9239437 71.853846,12.6405634 C74.6582122,12.3861972 76.7130009,10.5540845 76.7130009,7.99225352 C76.7130009,5.43084507 74.5255361,4.25028169 72.6363812,3.87929577 Z M71.4135643,0.95915493 C78.4382122,0.95915493 79.8642685,5.92394366 79.8291981,7.78985915 C79.7941277,9.65619718 79.1624376,14.334507 71.775677,15.6397183 C71.775677,15.6397183 71.7596207,19.4066197 71.4579305,21.2028169 C71.1558178,22.9985915 69.9524376,27.7723944 65.6037052,27.7723944 C61.2553953,27.7723944 60.2789164,21.5269014 60.1027192,20.1714085 C59.9269446,18.8159155 59.6717333,13.2405634 60.820184,9.89366197 C61.9069446,6.7271831 64.3889164,0.95915493 71.4135643,0.95915493 Z M93.8324376,10.1843662 C92.5846911,10.1742254 91.5744094,9.59028169 91.660184,7.99225352 C91.7459587,6.39464789 93.5024376,5.91929577 94.3804657,6.03169014 C95.2584939,6.14366197 96.3080714,6.32873239 96.3676488,7.75478873 C96.4268038,9.18084507 95.4566629,10.1974648 93.8324376,10.1843662 Z M113.345114,10.5578873 C113.723283,10.0998592 115.149761,7.03859155 115.374973,6.43521127 C115.600184,5.83225352 115.956381,4.5384507 115.280747,4.32042254 C114.604691,4.10239437 114.401029,4.64028169 113.914269,5.59225352 C113.427508,6.54422535 112.476381,10.5308451 112.476381,10.5308451 C112.983001,10.5578873 113.345114,10.5578873 113.345114,10.5578873 Z"></path></g></svg>