<?xml version="1.0" encoding="UTF-8" standalone="no"?>
<svg
   xmlns:dc="http://purl.org/dc/elements/1.1/"
   xmlns:cc="http://creativecommons.org/ns#"
   xmlns:rdf="http://www.w3.org/1999/02/22-rdf-syntax-ns#"
   xmlns:svg="http://www.w3.org/2000/svg"
   xmlns="http://www.w3.org/2000/svg"
   xmlns:sodipodi="http://sodipodi.sourceforge.net/DTD/sodipodi-0.dtd"
   xmlns:inkscape="http://www.inkscape.org/namespaces/inkscape"
   height="142"
   viewBox="0 0 894 142"
   width="894"
   version="1.1"
   id="svg856"
   sodipodi:docname="nearform.svg"
   inkscape:version="1.0.2 (e86c8708, 2021-01-15)">
  <metadata
     id="metadata862">
    <rdf:RDF>
      <cc:Work
         rdf:about="">
        <dc:format>image/svg+xml</dc:format>
        <dc:type
           rdf:resource="http://purl.org/dc/dcmitype/StillImage" />
        <dc:title></dc:title>
      </cc:Work>
    </rdf:RDF>
  </metadata>
  <defs
     id="defs860" />
  <sodipodi:namedview
     pagecolor="#ffffff"
     bordercolor="#666666"
     borderopacity="1"
     objecttolerance="10"
     gridtolerance="10"
     guidetolerance="10"
     inkscape:pageopacity="0"
     inkscape:pageshadow="2"
     inkscape:window-width="1374"
     inkscape:window-height="722"
     id="namedview858"
     showgrid="false"
     inkscape:zoom="0.7114094"
     inkscape:cx="434.34906"
     inkscape:cy="231.5283"
     inkscape:window-x="0"
     inkscape:window-y="25"
     inkscape:window-maximized="0"
     inkscape:current-layer="svg856" />
  <clipPath
     id="a">
    <path
       d="M 0,0 H 894 V 300 H 0 Z"
       id="path833" />
  </clipPath>
  <g
     clip-path="url(#a)"
     fill="#2165e4"
     id="g854"
     style="opacity:1;fill:#ffffff"
     transform="translate(0,-78)">
    <path
       d="M 17.725,85.772 C 12.644,87.335 9.518,89.68 7.824,92.937 6.391,95.803 6,106.617 6,151.433 v 54.848 l 4.43,4.43 4.429,4.429 h 20.845 c 15.634,0 21.105,-0.391 22.148,-1.693 0.912,-1.043 1.693,-9.381 1.824,-20.454 l 0.39,-18.631 12.768,16.807 c 17.718,23.32 17.458,23.19 42.081,23.711 22.538,0.521 26.056,-0.521 29.704,-8.078 1.824,-3.908 2.084,-10.943 2.084,-56.411 0,-46.771 -0.26,-52.243 -2.345,-56.412 -3.778,-7.686 -8.598,-9.119 -29.704,-9.119 -12.377,0 -18.76,0.521 -19.803,1.563 -1.042,1.042 -1.563,7.817 -1.563,21.627 v 20.063 L 82.084,113.391 C 66.45,92.807 62.672,89.029 54.986,86.814 48.862,84.99 22.285,84.208 17.725,85.772 Z m 31.658,10.683 c 2.867,0.651 6.514,2.605 8.338,4.299 1.694,1.563 19.412,24.102 39.085,49.897 19.802,25.796 36.478,47.683 37.26,48.465 0.782,1.172 0.651,2.345 -0.391,3.648 -2.475,2.996 -30.486,2.736 -36.088,-0.391 -4.95,-2.606 -79.862,-99.665 -79.862,-103.313 0,-1.172 0.782,-2.605 1.694,-2.866 2.736,-1.172 24.753,-0.912 29.964,0.261 z m 84.162,1.042 c 2.736,2.345 2.736,2.866 2.475,44.165 l -0.391,41.95 -15.894,-20.975 -16.025,-20.975 v -23.19 -23.19 h 13.55 c 10.943,0 14.07,0.391 16.285,2.215 z m -84.552,84.682 v 22.539 H 34.271 c -9.771,0 -15.243,-0.521 -16.285,-1.563 -1.173,-1.173 -1.564,-12.638 -1.564,-43.775 v -42.341 l 16.286,21.366 16.285,21.366 z"
       id="path836"
       style="fill:#ffffff" />
    <path
       d="m 218.357,150.651 v 54.067 h 14.331 14.331 l 0.261,-28.141 0.391,-28.14 24.623,28.14 24.492,28.141 h 10.944 10.944 V 150.651 96.585 h -14.331 -14.331 v 28.792 28.792 L 265.649,125.377 241.157,96.715 h -11.335 l -11.465,-0.13 z"
       id="path838"
       style="fill:#ffffff" />
    <path
       d="m 547.968,150.651 v 54.067 h 14.33 14.331 v -18.891 -18.891 h 19.412 19.412 l 0.912,-6.123 c 0.521,-3.517 1.954,-8.989 3.257,-12.376 l 2.345,-6.254 h -22.669 -22.669 v -10.422 -10.423 h 26.056 26.057 V 108.962 96.585 h -40.387 -40.387 z"
       id="path840"
       style="fill:#ffffff" />
    <path
       d="m 350.592,126.419 c -18.239,4.69 -29.313,19.412 -29.313,39.084 0,11.595 2.866,19.542 9.902,27.359 8.598,9.511 16.285,12.507 32.439,12.507 14.201,0 20.454,-2.084 28.402,-9.64 4.038,-3.648 8.728,-11.856 8.728,-15.113 0,-2.736 -24.883,-2.866 -27.359,-0.13 -0.781,1.042 -3.517,2.605 -5.992,3.387 -5.863,1.954 -12.377,-0.13 -16.937,-5.602 l -3.518,-4.169 27.229,-0.651 27.229,-0.652 -0.131,-9.771 c -0.26,-16.155 -7.686,-28.271 -21.235,-34.264 -6.514,-2.866 -22.539,-4.169 -29.444,-2.345 z m 17.458,21.106 c 3.387,1.172 7.947,6.644 7.947,9.64 0,0.391 -6.384,0.652 -14.331,0.652 -7.817,0 -14.331,-0.391 -14.331,-0.782 0,-2.215 3.257,-6.123 6.905,-8.338 4.821,-2.996 7.947,-3.257 13.81,-1.172 z"
       id="path842"
       style="fill:#ffffff" />
    <path
       d="m 428.891,127.331 c -9.38,2.997 -20.324,14.331 -23.451,24.493 -7.035,22.278 4.56,46.51 25.014,52.373 8.599,2.475 21.106,1.954 27.359,-1.303 3.648,-1.824 4.169,-1.954 4.169,-0.13 0,1.563 2.215,1.954 13.028,1.954 h 13.028 V 165.634 126.549 H 475.01 c -10.813,0 -13.028,0.391 -13.028,1.955 0,1.824 -0.521,1.693 -4.169,-0.131 -5.993,-3.126 -20.845,-3.647 -28.922,-1.042 z m 29.053,23.581 c 3.257,2.475 3.387,3.127 3.387,14.722 0,11.595 -0.13,12.246 -3.387,14.721 -5.212,3.779 -13.94,4.3 -19.152,1.043 -8.338,-5.342 -11.595,-15.504 -7.556,-23.321 1.954,-3.778 6.775,-8.598 9.901,-9.771 3.648,-1.563 13.289,0.131 16.807,2.606 z"
       id="path844"
       style="fill:#ffffff" />
    <path
       d="m 536.503,126.68 c -3.127,0.521 -8.338,2.475 -11.465,4.299 l -5.732,3.257 v -3.908 -3.779 H 506.278 493.25 v 39.085 39.084 h 13.028 13.028 V 182.57 160.422 l 6.774,-3.778 c 3.909,-2.214 9.771,-4.299 13.68,-4.82 l 6.905,-0.782 v -12.898 c 0,-14.33 0.651,-13.679 -10.162,-11.464 z"
       id="path846"
       style="fill:#ffffff" />
    <path
       d="m 647.632,126.94 c -18.5,6.124 -28.401,19.412 -28.531,37.912 0,17.979 7.035,29.965 22.147,37.391 7.296,3.647 9.771,4.169 19.152,4.169 8.989,0.13 11.986,-0.522 18.89,-3.648 18.37,-8.208 27.359,-27.88 21.888,-47.944 -4.951,-17.848 -18.5,-28.271 -38.303,-29.182 -5.993,-0.261 -12.116,0.39 -15.243,1.302 z m 24.493,26.708 c 3.127,3.257 4.039,5.341 4.43,10.943 0.651,8.599 -2.606,14.592 -9.511,17.458 -10.944,4.56 -22.669,-3.908 -22.669,-16.415 0,-14.592 17.458,-22.148 27.75,-11.986 z"
       id="path848"
       style="fill:#ffffff" />
    <path
       d="m 747.688,126.549 c -2.866,0.652 -7.817,2.346 -10.683,3.909 l -5.342,2.606 v -3.258 -3.257 h -13.679 -13.68 v 39.085 39.084 h 13.68 13.679 V 182.7 160.553 l 3.388,-2.606 c 3.778,-2.996 14.721,-6.644 19.672,-6.644 2.996,0 2.996,-0.261 2.996,-13.028 0,-14.461 0.652,-13.81 -10.031,-11.726 z"
       id="path850"
       style="fill:#ffffff" />
    <path
       d="m 791.201,127.852 c -4.038,2.215 -4.82,2.215 -4.82,0.652 0,-1.564 -2.345,-1.955 -13.028,-1.955 h -13.028 v 39.085 39.084 h 13.028 13.028 v -24.623 -24.753 l 3.518,-2.606 c 7.295,-5.863 14.852,-4.299 18.89,3.778 1.955,3.778 2.345,8.208 2.345,26.317 v 21.887 h 13.028 13.029 v -25.275 c 0,-24.753 0,-25.274 2.996,-27.098 4.951,-3.257 8.729,-3.908 12.768,-2.215 6.774,2.736 7.686,6.384 7.686,31.789 v 22.799 H 874.321 888 v -25.796 c 0,-31.137 -1.173,-36.739 -9.771,-45.207 -7.035,-7.035 -12.898,-8.859 -26.317,-8.338 -8.989,0.391 -11.334,1.042 -17.067,4.69 -5.992,3.648 -6.774,3.908 -8.337,2.085 -5.603,-6.905 -25.926,-9.381 -35.307,-4.3 z"
       id="path852"
       style="fill:#ffffff" />
  </g>
</svg>
