<svg height="12" aria-labelledby="title" role="img" xmlns="http://www.w3.org/2000/svg" x="0" y="0" viewBox="0 0 90 13" xml:space="preserve" class="_3rXDR text-white" data-v-6b003a77=""><title>Sex.com</title> <path d="M43.7184 7.38103C44.4128 5.70464 43.6168 3.78274 41.9404 3.08834C40.264 2.39395 38.3421 3.19001 37.6477 4.8664C36.9533 6.54278 37.7494 8.46468 39.4257 9.15908C41.1021 9.85348 43.024 9.05742 43.7184 7.38103Z" fill="#FE0088"></path> <path fill="#fff" d="M8.07204 4.88457L5.65696 4.44942C4.75402 4.28623 4.49293 3.95987 4.51469 3.61175C4.50381 3.12221 5.11302 2.83936 5.8419 2.83936C6.67956 2.83936 7.38668 3.28539 7.45195 4.01426H11.3792C11.2704 1.51215 9.18168 0 5.74399 0C2.36069 0 0.26109 1.39248 0.282848 3.86196C0.271969 5.73311 1.47951 6.92977 3.8946 7.35405L5.9942 7.72392C6.9189 7.89798 7.34317 8.13732 7.35405 8.59422C7.34317 9.08377 6.77747 9.36662 5.9942 9.36662C5.02599 9.36662 4.35151 8.95322 4.23184 8.19171H0C0.228454 10.6286 2.33893 12.2386 5.96156 12.2386C9.24695 12.2386 11.662 10.6394 11.6838 8.0938C11.6729 6.34232 10.498 5.31972 8.07204 4.88457Z"></path> <path fill="#fff" d="M20.0492 8.19171C19.799 8.8662 19.1027 9.24695 18.2216 9.24695C16.9596 9.24695 16.209 8.40929 16.209 7.26702V7.08208H23.9329V6.09211C23.9329 2.31718 21.6157 0 18.0257 0C14.3487 0 11.9989 2.43684 11.9989 6.12475C11.9989 9.96495 14.3161 12.2495 18.1236 12.2495C21.4199 12.2495 23.5304 10.6721 23.9329 8.20259H20.0492V8.19171ZM18.1345 3.00254C19.1898 3.00254 19.9948 3.70966 20.0166 4.73226H16.2199C16.2416 3.69878 17.0902 3.00254 18.1345 3.00254Z"></path> <path fill="#fff" d="M36.15 0.152176H31.9182L30.0906 3.8292L28.3608 0.152176H24.0964L27.2512 6.09198L23.8788 12.0209H28.1433L30.0906 8.25686L32.1031 12.0209H36.3023L32.9626 6.09198L36.15 0.152176Z"></path> <path fill="#fff" d="M52.3486 3.18748C53.2951 3.18748 53.9369 3.86196 54.0457 5.10214H58.0056C57.9838 2.01257 55.7863 0 52.2942 0C48.4322 0 46.1477 2.46948 46.1477 6.12475C46.1477 9.78001 48.4322 12.2495 52.2942 12.2495C55.8081 12.2495 57.962 10.2369 58.0164 7.09296H54.0566C53.9587 8.33314 53.2951 9.00762 52.3595 9.00762C51.239 9.00762 50.5101 8.05029 50.5101 6.10299C50.5101 4.15569 51.2281 3.18748 52.3486 3.18748Z"></path> <path fill="#fff" d="M64.6198 0C60.7578 0 58.4733 2.46948 58.4733 6.12475C58.4733 9.78001 60.7578 12.2495 64.6198 12.2495C68.4817 12.2495 70.7663 9.78001 70.7663 6.12475C70.7663 2.46948 68.4817 0 64.6198 0ZM64.6524 9.08377C63.5101 9.08377 62.8248 7.95238 62.8248 6.08123C62.8248 4.21008 63.5101 3.07869 64.6524 3.07869C65.7294 3.07869 66.4148 4.21008 66.4148 6.08123C66.4148 7.95238 65.7294 9.08377 64.6524 9.08377Z"></path> <path fill="#fff" d="M86.1489 0C84.3865 0 82.9614 0.957332 82.5589 2.41509H82.4392C82.1999 0.957332 80.8727 0 79.1974 0C77.5547 0 76.2927 0.924695 75.7923 2.41509H75.6726V0.152303H71.6257V12.021H75.8902V5.10214C75.8902 4.06866 76.4341 3.43769 77.3153 3.43769C78.1965 3.43769 78.7731 4.06866 78.7731 5.10214V12.021H82.8526V5.10214C82.8526 4.06866 83.3966 3.43769 84.2777 3.43769C85.1589 3.43769 85.7355 4.06866 85.7355 5.10214V12.021H90V4.01427C89.9891 1.5883 88.4226 0 86.1489 0Z"></path></svg>